<?xml version="1.0" encoding="utf-8"?>
<!-- Generator: Adobe Illustrator 17.1.0, SVG Export Plug-In . SVG Version: 6.00 Build 0)  -->
<!DOCTYPE svg PUBLIC "-//W3C//DTD SVG 1.1//EN" "http://www.w3.org/Graphics/SVG/1.1/DTD/svg11.dtd">
<svg version="1.1" id="Layer_1" xmlns="http://www.w3.org/2000/svg" xmlns:xlink="http://www.w3.org/1999/xlink" x="0px" y="0px"
	 viewBox="0 0 100 100" enable-background="new 0 0 100 100" xml:space="preserve">
<g>
	<path d="M71.7,59.6c0.3-0.1,0.5,0.4,0.2,0.6c-2.2,1.1-5.5,3.3-6.5,4.7c-1.9,2.8-1.6,4.2-2.1,7.6c-0.5,3.1-1.8,6.1-3.9,8.5
		c-0.2,0.3-0.6,0.2-0.7-0.2c-0.7-4.7-3.9-9.1-8.2-11.2c-0.2-0.1-0.2-0.5,0-0.5c3.1-0.9,5.9-2.5,8.3-4.7c-11.8,1.5-16.6-3.6-16.8-5.8
		c9.6,4.5,10.7-7.7,18.7-1.1c1,0.8,3.9,2.6,7.9,2.5C70,59.8,70.8,59.7,71.7,59.6z"/>
	<path d="M28.7,73.8c8.9,3.1,21.9,6.1,28.1,22.2c0,0.1-0.1,0.2-0.2,0.1c-9.8-14.9-29.8-10.7-44.4-23.6C4.9,66,2.5,55.3,0.7,43.5
		c0-0.1,0.1-0.1,0.2,0C4.4,56.5,15.7,69.3,28.7,73.8z"/>
	<path stroke="#000000" stroke-width="0.25" stroke-linecap="round" stroke-linejoin="round" stroke-miterlimit="10" d="M45.3,88.7
		c4.9,1.7,7.6,5,10.5,8.6c-2.4-3-7.9-2.6-12.5-2.1c-3.4,0.3-6.1,1.6-9.4,2.5c0,0,0,0,0,0l0,0c1.7-1.5,3.5-2.7,5.4-3.8l2.1-1.2
		c-3.5,2.3-8.3,2.2-11.9,0.7c-3.5-1.5-6.1-4.1-8.5-6.7c-2-2.1-4-4.2-6-6.3c0-0.1,0-0.1,0.1-0.1c6,3.4,11.7,6.2,19,7.2
		C37.5,88,41.1,87.3,45.3,88.7z"/>
	<path d="M84.2,75.1c-5.4,3.4-10.5,5.3-17.5,6.5c-0.3,0.1-0.5-0.4-0.2-0.6c2.8-1.4,6.9-3.9,8.5-4.9c14.9-9.6,18.6-29.8,8.1-47
		C73.7,14,55.1,7.9,39.1,13.6c-0.2,0.1-0.3-0.2-0.2-0.3c1.3-1.1,2.6-2.1,4.1-2.9c17.7-9.2,42.4-3.2,52.3,16
		C104.9,45.3,97.7,66.6,84.2,75.1z"/>
	<path d="M93,70.4c-4.6,5.1-8.9,9.4-15.4,10.8c-0.3,0.1-0.6,0.1-0.9,0.2c-3.3,0.7-8.4,1.8-10.9,3.4c-3.6,2.3-5.3,5.9-7,9.5
		c-0.3,0.7-0.6,1.3-1,2c0.4-2.9,2.1-21-15.2-28.4c-28.5-12.2-28-46.2-6.9-65c0.1-0.1,0-0.3-0.1-0.2C30.4,5,1,20.2,9.3,47.8
		c7,23.3,28.7,23.5,38.1,30.8c11,8.5,9.1,19.4,10.4,18.1l0.1-0.2c1.6-3,7.5-9.3,17.9-10c2.9-0.2,7.2-1.7,12-7.2
		c3.2-3.7,5-7.4,5.3-8.9l0,0L93,70.4z"/>
</g>
</svg>
